<?xml version="1.0" encoding="UTF-8" standalone="no" ?>
<!DOCTYPE svg PUBLIC "-//W3C//DTD SVG 1.1//EN" "http://www.w3.org/Graphics/SVG/1.1/DTD/svg11.dtd">
<svg xmlns="http://www.w3.org/2000/svg" xmlns:xlink="http://www.w3.org/1999/xlink" version="1.1" width="128" height="128" viewBox="0 0 128 128" xml:space="preserve">
<desc>Created with Fabric.js 5.3.0</desc>
<defs>
</defs>
<g transform="matrix(1 0 0 1 64.1073447412 64.1067394113)" id="zPPiWOJMV1IqrNGKo-Juz"  >
<path style="stroke: none; stroke-width: 1; stroke-dasharray: none; stroke-linecap: butt; stroke-dashoffset: 0; stroke-linejoin: miter; stroke-miterlimit: 4; fill: rgb(255,255,255); fill-rule: evenodd; opacity: 1;"  transform=" translate(0, 0)" d="M -0.0005 -58.89689 C -33.347500000000004 -58.89689 -60.3885 -31.86189 -60.3885 1.491109999999999 C -60.3885 28.173109999999998 -43.085499999999996 50.80811 -19.091500000000003 58.794109999999996 C -16.074500000000004 59.35411 -14.966500000000003 57.484109999999994 -14.966500000000003 55.889109999999995 C -14.966500000000003 54.44911 -15.022500000000003 49.69210999999999 -15.048500000000004 44.64610999999999 C -31.848500000000005 48.29910999999999 -35.3935 37.52110999999999 -35.3935 37.52110999999999 C -38.1405 30.541109999999993 -42.0985 28.685109999999995 -42.0985 28.685109999999995 C -47.578500000000005 24.937109999999993 -41.685500000000005 25.015109999999993 -41.685500000000005 25.015109999999993 C -35.6225 25.440109999999994 -32.42850000000001 31.238109999999992 -32.42850000000001 31.238109999999992 C -27.042500000000008 40.468109999999996 -18.301500000000004 37.80010999999999 -14.855500000000006 36.25810999999999 C -14.313500000000007 32.35510999999999 -12.748500000000007 29.69010999999999 -11.021500000000007 28.182109999999987 C -24.434500000000007 26.65710999999999 -38.535500000000006 21.478109999999987 -38.535500000000006 -1.6608900000000126 C -38.535500000000006 -8.253890000000013 -36.17550000000001 -13.640890000000013 -32.31250000000001 -17.870890000000013 C -32.94050000000001 -19.390890000000013 -35.00750000000001 -25.532890000000013 -31.728500000000007 -33.850890000000014 C -31.728500000000007 -33.850890000000014 -26.658500000000007 -35.47389000000001 -15.118500000000008 -27.660890000000013 C -10.300500000000008 -28.99989000000001 -5.133500000000009 -29.672890000000013 -0.0005000000000077165 -29.695890000000013 C 5.129499999999992 -29.672890000000013 10.299499999999993 -29.001890000000014 15.126499999999993 -27.66289000000001 C 26.652499999999993 -35.475890000000014 31.716499999999993 -33.85289000000001 31.716499999999993 -33.85289000000001 C 35.003499999999995 -25.53589000000001 32.936499999999995 -19.39289000000001 32.30949999999999 -17.87289000000001 C 36.18149999999999 -13.642890000000008 38.52449999999999 -8.255890000000008 38.52449999999999 -1.662890000000008 C 38.52449999999999 21.53110999999999 24.397499999999987 26.637109999999993 10.950499999999987 28.13310999999999 C 13.117499999999987 30.00710999999999 15.047499999999989 33.68310999999999 15.047499999999989 39.316109999999995 C 15.047499999999989 47.39610999999999 14.977499999999988 53.89910999999999 14.977499999999988 55.88811 C 14.977499999999988 57.49511 16.06549999999999 59.37811 19.125499999999988 58.785109999999996 C 43.10549999999999 50.791109999999996 60.388499999999986 28.163109999999996 60.388499999999986 1.491109999999999 C 60.38749999999999 -31.85989 33.349499999999985 -58.89589 -0.0005000000000165983 -58.89589 z" stroke-linecap="round" />
</g>
<g transform="matrix(1 0 0 1 36.8514859761 97.801483872)" id="aNIvoy9k_FdV7L6k7K_Y7"  >
<path style="stroke: none; stroke-width: 1; stroke-dasharray: none; stroke-linecap: butt; stroke-dashoffset: 0; stroke-linejoin: miter; stroke-miterlimit: 4; fill: rgb(255,255,255); fill-rule: nonzero; opacity: 1;"  transform=" translate(0, 0)" d="M -10.26064 -5.88864 C -10.393640000000001 -5.58864 -10.86564 -5.49864 -11.29564 -5.70364 C -11.73564 -5.89964 -11.980640000000001 -6.3086400000000005 -11.83864 -6.60964 C -11.708639999999999 -6.919639999999999 -11.23564 -7.00464 -10.798639999999999 -6.7976399999999995 C -10.35864 -6.600639999999999 -10.10864 -6.187639999999999 -10.261639999999998 -5.887639999999999 z M -7.81464 -3.15964 C -8.10164 -2.89264 -8.66464 -3.01664 -9.04664 -3.43964 C -9.44264 -3.8596399999999997 -9.51664 -4.4226399999999995 -9.22364 -4.69364 C -8.92564 -4.95964 -8.37964 -4.83364 -7.983639999999999 -4.41364 C -7.589639999999999 -3.98764 -7.51164 -3.42964 -7.8136399999999995 -3.15864 z M -5.43264 0.31736 C -5.80264 0.57536 -6.40864 0.33436 -6.782640000000001 -0.20264000000000004 C -7.152640000000001 -0.7406400000000001 -7.152640000000001 -1.38564 -6.772640000000001 -1.64264 C -6.399640000000001 -1.90064 -5.802640000000001 -1.66764 -5.422640000000001 -1.13564 C -5.054640000000001 -0.5906399999999999 -5.054640000000001 0.054359999999999964 -5.432640000000001 0.31636 z M -2.17164 3.67836 C -2.50164 4.04336 -3.20764 3.94536 -3.72364 3.44836 C -4.25064 2.96136 -4.39764 2.2683600000000004 -4.0666400000000005 1.90436 C -3.7306400000000006 1.53836 -3.0216400000000005 1.64036 -2.5026400000000004 2.13436 C -1.9756400000000003 2.62036 -1.8166400000000005 3.3143599999999998 -2.1696400000000002 3.67736 z M 2.32836 5.62936 C 2.18136 6.10236 1.50336 6.31736 0.81836 6.11536 C 0.13535999999999992 5.90836 -0.3116399999999999 5.35536 -0.17164000000000001 4.8773599999999995 C -0.03164 4.400359999999999 0.6513599999999999 4.177359999999999 1.34036 4.392359999999999 C 2.0233600000000003 4.59836 2.47036 5.148359999999999 2.32836 5.629359999999999 z M 7.27136 5.99036 C 7.28836 6.48836 6.70836 6.90036 5.991359999999999 6.91036 C 5.2683599999999995 6.92736 4.6833599999999995 6.52336 4.676359999999999 6.03336 C 4.676359999999999 5.53036 5.244359999999999 5.12336 5.966359999999999 5.10936 C 6.683359999999999 5.09636 7.272359999999999 5.496359999999999 7.272359999999999 5.98936 z M 11.86936 5.20836 C 11.95536 5.69336 11.45636 6.19236 10.743360000000001 6.32536 C 10.043360000000002 6.45536 9.393360000000001 6.15336 9.303360000000001 5.672359999999999 C 9.217360000000001 5.174359999999999 9.725360000000002 4.6753599999999995 10.425360000000001 4.54636 C 11.139360000000002 4.42336 11.77936 4.71636 11.86936 5.20936 z M 11.86936 5.20836" stroke-linecap="round" />
</g>
</svg>