<?xml version="1.0" encoding="UTF-8" standalone="no" ?>
<!DOCTYPE svg PUBLIC "-//W3C//DTD SVG 1.1//EN" "http://www.w3.org/Graphics/SVG/1.1/DTD/svg11.dtd">
<svg xmlns="http://www.w3.org/2000/svg" xmlns:xlink="http://www.w3.org/1999/xlink" version="1.1" width="128" height="128" viewBox="0 0 128 128" xml:space="preserve">
<desc>Created with Fabric.js 5.3.0</desc>
<defs>
</defs>
<g transform="matrix(1 0 0 1 64 64)" id="YM9Get_3tT-gFzj4hBNyy"  >
<path style="stroke: none; stroke-width: 1; stroke-dasharray: none; stroke-linecap: butt; stroke-dashoffset: 0; stroke-linejoin: miter; stroke-miterlimit: 4; fill: rgb(255,255,255); fill-rule: nonzero; opacity: 1;"  transform=" translate(-64, -64.0000013686)" d="M 116 3 L 12 3 C 7.0867635081259035 2.9499974522673145 3.060405947678708 6.886880400260125 3 11.799999999999997 L 3 116.22 C 3.0713216524991918 121.12527225469869 7.0944648126712835 125.05007191539991 12 125 L 116 125 C 120.91265491708526 125.03895177802359 124.93413682460391 121.10236782188588 125 116.19 L 125 11.77 C 124.91240827729895 6.8733261836542665 120.8973005041272 2.9608267202413447 116 3 z M 39.17 107 L 21.06 107 L 21.06 48.73 L 39.17 48.73 z M 30.17 40.790000000000006 C 25.922238756698427 40.79404548873264 22.090489743766334 38.23836913268027 20.46213796560396 34.3151099731766 C 18.83378618744159 30.391850813672924 19.729651598441883 25.873974398766855 22.73184242224409 22.868921619937193 C 25.734033246046295 19.863868841107532 30.251053998635214 18.963699048417148 34.17586292688619 20.588311870844525 C 38.100671855137165 22.2129246932719 40.65999807357636 26.042236830275225 40.660000000000004 30.290000000000006 C 40.654709289469274 33.07825001311478 39.54063067753328 35.74990188557015 37.563416925088134 37.71586015175849 C 35.58620317264299 39.681818417946836 32.908234781241426 40.780626943496934 30.120000000000005 40.77000000000001 z M 107 107 L 88.89 107 L 88.89 78.65 C 88.89 71.9 88.77 63.21000000000001 79.48 63.21000000000001 C 70.19000000000001 63.21000000000001 68.61 70.57000000000001 68.61 78.21000000000001 L 68.61 107 L 50.53 107 L 50.53 48.73 L 67.89 48.73 L 67.89 56.73 L 68.13 56.73 C 70.55 52.15 76.44999999999999 47.31999999999999 85.25999999999999 47.31999999999999 C 103.6 47.28 107 59.35 107 75 z" stroke-linecap="round" />
</g>
</svg>