<?xml version="1.0" encoding="UTF-8" standalone="no" ?>
<!DOCTYPE svg PUBLIC "-//W3C//DTD SVG 1.1//EN" "http://www.w3.org/Graphics/SVG/1.1/DTD/svg11.dtd">
<svg xmlns="http://www.w3.org/2000/svg" xmlns:xlink="http://www.w3.org/1999/xlink" version="1.1" width="128" height="128" viewBox="0 0 128 128" xml:space="preserve">
<desc>Created with Fabric.js 5.3.0</desc>
<defs>
</defs>
<g transform="matrix(1 0 0 1 64 64)" id="KbylaoapPAx74ru9nyRa2"  >
<path style="stroke: none; stroke-width: 1; stroke-dasharray: none; stroke-linecap: butt; stroke-dashoffset: 0; stroke-linejoin: miter; stroke-miterlimit: 4; fill: rgb(255,255,255); fill-rule: nonzero; opacity: 1;"  transform=" translate(-64, -64)" d="M 64 0 C 28.7 0 0 28.7 0 64 C 0 99.3 28.7 128 64 128 C 75.2 128 85.7 125.1 94.8 120.1 L 48.4 55.3 L 48.4 91.9 L 41.6 91.9 L 41.6 41.8 L 48.4 41.8 L 98.9 117.6 C 116.4 106.2 128 86.5 128 64 C 128 28.700000000000003 99.3 0 64 0 z M 86.1 84.6 L 78.6 73.3 L 78.6 41.8 L 86.1 41.8 L 86.1 84.6 z" stroke-linecap="round" />
</g>
</svg>